<svg width="512" height="512" viewBox="0 0 512 512" fill="none" xmlns="http://www.w3.org/2000/svg">
<path d="M188.16 183.253C160.171 211.242 152.41 254.975 177.236 285.804C191.748 303.825 208.175 320.252 226.196 334.764C257.025 359.59 300.758 351.829 328.747 323.84C334.72 317.867 350.507 318.507 350.507 318.507L426.667 330.667C426.667 330.667 437.751 332.914 441.752 336.915C445.752 340.916 448 346.342 448 352V426.667C448 432.325 445.752 437.751 441.752 441.752C437.751 445.752 432.325 448 426.667 448C330.482 448 238.236 409.791 170.223 341.777C102.209 273.764 64 181.519 64 85.3333C64 79.6754 66.2476 74.2492 70.2484 70.2484C74.2492 66.2476 79.6754 64 85.3333 64H160C165.658 64 171.084 66.2476 175.085 70.2484C179.086 74.2492 181.333 85.3333 181.333 85.3333L193.493 161.493C193.493 161.493 194.133 177.28 188.16 183.253Z" fill="white"/>
</svg>
