<svg width="512" height="512" viewBox="0 0 512 512" fill="none" xmlns="http://www.w3.org/2000/svg">
<g clip-path="url(#clip0_120_2)">
<path d="M352.877 282.598C352.877 244.025 328.09 208.54 289.738 204.404C267.32 201.985 244.68 201.986 222.262 204.404C183.91 208.54 159.123 244.025 159.123 282.598C159.123 290.831 147.803 301.268 147.803 301.268L86.9427 345.37C86.9427 345.37 77.7559 351.459 72.2421 351.459C66.7283 351.459 61.4403 349.269 57.5415 345.37L6.08924 293.918C2.19039 290.019 0 284.731 0 279.217C0 273.703 2.19039 268.415 6.08924 264.516C72.3697 198.236 162.265 161 256 161C349.735 161 439.63 198.236 505.911 264.516C509.81 268.415 512 273.703 512 279.217C512 284.731 509.81 290.019 505.911 293.918L454.459 345.37C450.56 349.269 445.272 351.459 439.758 351.459C434.244 351.459 425.057 345.37 425.057 345.37L364.197 301.268C364.197 301.268 352.877 290.831 352.877 282.598Z" fill="white"/>
</g>
<defs>
<clipPath id="clip0_120_2">
<rect width="512" height="512" fill="white"/>
</clipPath>
</defs>
</svg>
